<mxfile host="app.diagrams.net" modified="2023-05-28T10:39:30.150Z" agent="5.0 (Windows NT 10.0; Win64; x64) AppleWebKit/537.36 (KHTML, like Gecko) Chrome/113.0.0.0 Safari/537.36" etag="bmC6OjCg5CXr120_-5rF" version="21.0.6" type="github">
  <diagram id="6a731a19-8d31-9384-78a2-239565b7b9f0" name="Page-1">
    <mxGraphModel dx="794" dy="462" grid="1" gridSize="10" guides="1" tooltips="1" connect="1" arrows="1" fold="1" page="1" pageScale="1" pageWidth="1169" pageHeight="827" background="none" math="0" shadow="0">
      <root>
        <mxCell id="0" />
        <mxCell id="1" parent="0" />
        <mxCell id="2" value="start" style="shape=mxgraph.flowchart.terminator;strokeWidth=2;gradientColor=none;gradientDirection=north;fontStyle=0;html=1;" parent="1" vertex="1">
          <mxGeometry x="260" y="60" width="120" height="30" as="geometry" />
        </mxCell>
        <mxCell id="5" value="check for any&amp;nbsp;&lt;br&gt;additional&amp;nbsp;&lt;br&gt;requirement" style="shape=mxgraph.flowchart.data;strokeWidth=2;gradientColor=none;gradientDirection=north;fontStyle=0;html=1;" parent="1" vertex="1">
          <mxGeometry x="240.5" y="250" width="159" height="80" as="geometry" />
        </mxCell>
        <mxCell id="6" value="all requirements&lt;br&gt;defined?" style="shape=mxgraph.flowchart.decision;strokeWidth=2;gradientColor=none;gradientDirection=north;fontStyle=0;html=1;" parent="1" vertex="1">
          <mxGeometry x="251.5" y="364" width="139" height="100" as="geometry" />
        </mxCell>
        <mxCell id="7" style="fontStyle=1;strokeColor=#003366;strokeWidth=1;html=1;" parent="1" source="2" edge="1">
          <mxGeometry relative="1" as="geometry">
            <mxPoint x="320" y="130" as="targetPoint" />
          </mxGeometry>
        </mxCell>
        <mxCell id="8" style="fontStyle=1;strokeColor=#003366;strokeWidth=1;html=1;" parent="1" target="5" edge="1">
          <mxGeometry relative="1" as="geometry">
            <mxPoint x="320" y="210" as="sourcePoint" />
          </mxGeometry>
        </mxCell>
        <mxCell id="9" style="entryX=0.5;entryY=0;entryPerimeter=0;fontStyle=1;strokeColor=#003366;strokeWidth=1;html=1;" parent="1" source="5" target="6" edge="1">
          <mxGeometry relative="1" as="geometry" />
        </mxCell>
        <mxCell id="n7o8BsItlUeNYU8J1b4U-55" value="requirement gathering and analysis&lt;br&gt;1. conduct interviews&amp;nbsp;&lt;br&gt;2. identify paperwork based activities&lt;br&gt;within the hospital" style="rounded=1;whiteSpace=wrap;html=1;" vertex="1" parent="1">
          <mxGeometry x="230" y="130" width="200" height="80" as="geometry" />
        </mxCell>
        <mxCell id="n7o8BsItlUeNYU8J1b4U-56" value="" style="endArrow=classic;html=1;rounded=0;exitX=0;exitY=0.5;exitDx=0;exitDy=0;exitPerimeter=0;" edge="1" parent="1" source="6">
          <mxGeometry width="50" height="50" relative="1" as="geometry">
            <mxPoint x="250" y="410" as="sourcePoint" />
            <mxPoint x="320" y="120" as="targetPoint" />
            <Array as="points">
              <mxPoint x="170" y="414" />
              <mxPoint x="170" y="120" />
            </Array>
          </mxGeometry>
        </mxCell>
        <mxCell id="n7o8BsItlUeNYU8J1b4U-57" value="No" style="text;html=1;strokeColor=none;fillColor=none;align=center;verticalAlign=middle;whiteSpace=wrap;rounded=0;" vertex="1" parent="1">
          <mxGeometry x="175" y="384" width="60" height="30" as="geometry" />
        </mxCell>
        <mxCell id="n7o8BsItlUeNYU8J1b4U-58" value="" style="endArrow=classic;html=1;rounded=0;exitX=0.5;exitY=1;exitDx=0;exitDy=0;exitPerimeter=0;" edge="1" parent="1" source="6">
          <mxGeometry width="50" height="50" relative="1" as="geometry">
            <mxPoint x="290" y="490" as="sourcePoint" />
            <mxPoint x="320" y="510" as="targetPoint" />
          </mxGeometry>
        </mxCell>
        <mxCell id="n7o8BsItlUeNYU8J1b4U-59" value="Yes" style="text;html=1;strokeColor=none;fillColor=none;align=center;verticalAlign=middle;whiteSpace=wrap;rounded=0;" vertex="1" parent="1">
          <mxGeometry x="309" y="464" width="60" height="30" as="geometry" />
        </mxCell>
        <mxCell id="n7o8BsItlUeNYU8J1b4U-60" value="develop a high-quality design plan" style="rounded=1;whiteSpace=wrap;html=1;" vertex="1" parent="1">
          <mxGeometry x="240" y="510" width="160" height="70" as="geometry" />
        </mxCell>
        <mxCell id="n7o8BsItlUeNYU8J1b4U-62" value="" style="endArrow=classic;html=1;rounded=0;" edge="1" parent="1" target="n7o8BsItlUeNYU8J1b4U-63">
          <mxGeometry width="50" height="50" relative="1" as="geometry">
            <mxPoint x="320" y="577" as="sourcePoint" />
            <mxPoint x="320" y="637" as="targetPoint" />
          </mxGeometry>
        </mxCell>
        <mxCell id="n7o8BsItlUeNYU8J1b4U-63" value="view design&lt;br&gt;plan and&amp;nbsp;&lt;br&gt;requirement" style="shape=parallelogram;perimeter=parallelogramPerimeter;whiteSpace=wrap;html=1;fixedSize=1;" vertex="1" parent="1">
          <mxGeometry x="260" y="620" width="120" height="60" as="geometry" />
        </mxCell>
        <mxCell id="n7o8BsItlUeNYU8J1b4U-64" value="" style="endArrow=classic;html=1;rounded=0;exitX=1;exitY=0;exitDx=0;exitDy=0;" edge="1" parent="1" source="n7o8BsItlUeNYU8J1b4U-63" target="n7o8BsItlUeNYU8J1b4U-65">
          <mxGeometry width="50" height="50" relative="1" as="geometry">
            <mxPoint x="380" y="640" as="sourcePoint" />
            <mxPoint x="450" y="640" as="targetPoint" />
          </mxGeometry>
        </mxCell>
        <mxCell id="n7o8BsItlUeNYU8J1b4U-65" value="Does design meet&lt;br&gt;all requirements?" style="rhombus;whiteSpace=wrap;html=1;" vertex="1" parent="1">
          <mxGeometry x="410" y="570" width="130" height="110" as="geometry" />
        </mxCell>
        <mxCell id="n7o8BsItlUeNYU8J1b4U-66" value="" style="endArrow=classic;html=1;rounded=0;exitX=0.5;exitY=0;exitDx=0;exitDy=0;" edge="1" parent="1" source="n7o8BsItlUeNYU8J1b4U-65">
          <mxGeometry width="50" height="50" relative="1" as="geometry">
            <mxPoint x="460" y="550" as="sourcePoint" />
            <mxPoint x="320" y="490" as="targetPoint" />
            <Array as="points">
              <mxPoint x="475" y="490" />
            </Array>
          </mxGeometry>
        </mxCell>
        <mxCell id="n7o8BsItlUeNYU8J1b4U-67" value="No" style="text;html=1;strokeColor=none;fillColor=none;align=center;verticalAlign=middle;whiteSpace=wrap;rounded=0;" vertex="1" parent="1">
          <mxGeometry x="460" y="530" width="60" height="30" as="geometry" />
        </mxCell>
        <mxCell id="n7o8BsItlUeNYU8J1b4U-68" value="" style="endArrow=classic;html=1;rounded=0;exitX=0.5;exitY=1;exitDx=0;exitDy=0;" edge="1" parent="1" source="n7o8BsItlUeNYU8J1b4U-65">
          <mxGeometry width="50" height="50" relative="1" as="geometry">
            <mxPoint x="290" y="680" as="sourcePoint" />
            <mxPoint x="475" y="720" as="targetPoint" />
          </mxGeometry>
        </mxCell>
        <mxCell id="n7o8BsItlUeNYU8J1b4U-69" value="Yes" style="text;html=1;strokeColor=none;fillColor=none;align=center;verticalAlign=middle;whiteSpace=wrap;rounded=0;" vertex="1" parent="1">
          <mxGeometry x="470" y="680" width="60" height="30" as="geometry" />
        </mxCell>
        <mxCell id="n7o8BsItlUeNYU8J1b4U-70" value="Determine the hardware and software requirements" style="rounded=1;whiteSpace=wrap;html=1;" vertex="1" parent="1">
          <mxGeometry x="370" y="720" width="200" height="70" as="geometry" />
        </mxCell>
        <mxCell id="n7o8BsItlUeNYU8J1b4U-72" value="" style="endArrow=classic;html=1;rounded=0;exitX=0.5;exitY=1;exitDx=0;exitDy=0;" edge="1" parent="1" source="n7o8BsItlUeNYU8J1b4U-70">
          <mxGeometry width="50" height="50" relative="1" as="geometry">
            <mxPoint x="290" y="680" as="sourcePoint" />
            <mxPoint x="470" y="840" as="targetPoint" />
          </mxGeometry>
        </mxCell>
        <mxCell id="n7o8BsItlUeNYU8J1b4U-73" value="all the software and&amp;nbsp;&lt;br&gt;hardware requirement&lt;br&gt;&amp;nbsp;met?" style="rhombus;whiteSpace=wrap;html=1;" vertex="1" parent="1">
          <mxGeometry x="390" y="840" width="160" height="100" as="geometry" />
        </mxCell>
        <mxCell id="n7o8BsItlUeNYU8J1b4U-74" value="" style="endArrow=classic;html=1;rounded=0;exitX=1;exitY=0.5;exitDx=0;exitDy=0;entryX=0;entryY=1;entryDx=0;entryDy=0;" edge="1" parent="1" source="n7o8BsItlUeNYU8J1b4U-73" target="n7o8BsItlUeNYU8J1b4U-69">
          <mxGeometry width="50" height="50" relative="1" as="geometry">
            <mxPoint x="290" y="820" as="sourcePoint" />
            <mxPoint x="640" y="670" as="targetPoint" />
            <Array as="points">
              <mxPoint x="640" y="890" />
              <mxPoint x="640" y="710" />
            </Array>
          </mxGeometry>
        </mxCell>
        <mxCell id="n7o8BsItlUeNYU8J1b4U-75" value="No" style="text;html=1;strokeColor=none;fillColor=none;align=center;verticalAlign=middle;whiteSpace=wrap;rounded=0;" vertex="1" parent="1">
          <mxGeometry x="625" y="790" width="60" height="30" as="geometry" />
        </mxCell>
        <mxCell id="n7o8BsItlUeNYU8J1b4U-76" value="" style="endArrow=classic;html=1;rounded=0;exitX=0;exitY=0.5;exitDx=0;exitDy=0;" edge="1" parent="1" source="n7o8BsItlUeNYU8J1b4U-73">
          <mxGeometry width="50" height="50" relative="1" as="geometry">
            <mxPoint x="290" y="820" as="sourcePoint" />
            <mxPoint x="330" y="890" as="targetPoint" />
          </mxGeometry>
        </mxCell>
        <mxCell id="n7o8BsItlUeNYU8J1b4U-93" style="edgeStyle=orthogonalEdgeStyle;rounded=0;orthogonalLoop=1;jettySize=auto;html=1;exitX=0.75;exitY=1;exitDx=0;exitDy=0;" edge="1" parent="1" source="n7o8BsItlUeNYU8J1b4U-77">
          <mxGeometry relative="1" as="geometry">
            <mxPoint x="385" y="920" as="targetPoint" />
          </mxGeometry>
        </mxCell>
        <mxCell id="n7o8BsItlUeNYU8J1b4U-77" value="Yes" style="text;html=1;strokeColor=none;fillColor=none;align=center;verticalAlign=middle;whiteSpace=wrap;rounded=0;" vertex="1" parent="1">
          <mxGeometry x="340" y="890" width="60" height="30" as="geometry" />
        </mxCell>
        <mxCell id="n7o8BsItlUeNYU8J1b4U-78" value="Build electronic health record system for the facility" style="rounded=1;whiteSpace=wrap;html=1;" vertex="1" parent="1">
          <mxGeometry x="180" y="840" width="150" height="80" as="geometry" />
        </mxCell>
        <mxCell id="n7o8BsItlUeNYU8J1b4U-79" value="" style="endArrow=classic;html=1;rounded=0;exitX=0.453;exitY=1.025;exitDx=0;exitDy=0;exitPerimeter=0;" edge="1" parent="1" source="n7o8BsItlUeNYU8J1b4U-78">
          <mxGeometry width="50" height="50" relative="1" as="geometry">
            <mxPoint x="370" y="900" as="sourcePoint" />
            <mxPoint x="248" y="960" as="targetPoint" />
          </mxGeometry>
        </mxCell>
        <mxCell id="n7o8BsItlUeNYU8J1b4U-80" value="build all modules required for the system" style="rounded=1;whiteSpace=wrap;html=1;" vertex="1" parent="1">
          <mxGeometry x="175" y="960" width="145" height="60" as="geometry" />
        </mxCell>
        <mxCell id="n7o8BsItlUeNYU8J1b4U-81" value="" style="endArrow=classic;html=1;rounded=0;exitX=1.005;exitY=0.367;exitDx=0;exitDy=0;exitPerimeter=0;" edge="1" parent="1" source="n7o8BsItlUeNYU8J1b4U-80" target="n7o8BsItlUeNYU8J1b4U-82">
          <mxGeometry width="50" height="50" relative="1" as="geometry">
            <mxPoint x="370" y="890" as="sourcePoint" />
            <mxPoint x="440" y="1040" as="targetPoint" />
            <Array as="points">
              <mxPoint x="440" y="980" />
            </Array>
          </mxGeometry>
        </mxCell>
        <mxCell id="n7o8BsItlUeNYU8J1b4U-82" value="all parts of system&amp;nbsp;&lt;br&gt;developed" style="rhombus;whiteSpace=wrap;html=1;" vertex="1" parent="1">
          <mxGeometry x="370" y="1030" width="130" height="80" as="geometry" />
        </mxCell>
        <mxCell id="n7o8BsItlUeNYU8J1b4U-83" value="" style="endArrow=classic;html=1;rounded=0;exitX=0;exitY=0.5;exitDx=0;exitDy=0;" edge="1" parent="1" source="n7o8BsItlUeNYU8J1b4U-82">
          <mxGeometry width="50" height="50" relative="1" as="geometry">
            <mxPoint x="370" y="1090" as="sourcePoint" />
            <mxPoint x="360" y="890" as="targetPoint" />
            <Array as="points">
              <mxPoint x="160" y="1070" />
              <mxPoint x="160" y="820" />
              <mxPoint x="360" y="820" />
              <mxPoint x="360" y="850" />
            </Array>
          </mxGeometry>
        </mxCell>
        <mxCell id="n7o8BsItlUeNYU8J1b4U-84" value="No" style="text;html=1;strokeColor=none;fillColor=none;align=center;verticalAlign=middle;whiteSpace=wrap;rounded=0;" vertex="1" parent="1">
          <mxGeometry x="211" y="1050" width="60" height="30" as="geometry" />
        </mxCell>
        <mxCell id="n7o8BsItlUeNYU8J1b4U-85" value="" style="endArrow=classic;html=1;rounded=0;exitX=1;exitY=0.5;exitDx=0;exitDy=0;" edge="1" parent="1" source="n7o8BsItlUeNYU8J1b4U-82">
          <mxGeometry width="50" height="50" relative="1" as="geometry">
            <mxPoint x="370" y="1100" as="sourcePoint" />
            <mxPoint x="540" y="1070" as="targetPoint" />
          </mxGeometry>
        </mxCell>
        <mxCell id="n7o8BsItlUeNYU8J1b4U-86" value="perform system testing&lt;br&gt;" style="rounded=1;whiteSpace=wrap;html=1;" vertex="1" parent="1">
          <mxGeometry x="540" y="1040" width="120" height="60" as="geometry" />
        </mxCell>
        <mxCell id="n7o8BsItlUeNYU8J1b4U-87" value="Yes" style="text;html=1;strokeColor=none;fillColor=none;align=center;verticalAlign=middle;whiteSpace=wrap;rounded=0;" vertex="1" parent="1">
          <mxGeometry x="490" y="1050" width="60" height="30" as="geometry" />
        </mxCell>
        <mxCell id="n7o8BsItlUeNYU8J1b4U-88" value="all component and &lt;br&gt;access working as&amp;nbsp;&lt;br&gt;required&lt;br&gt;" style="rhombus;whiteSpace=wrap;html=1;" vertex="1" parent="1">
          <mxGeometry x="290" y="1121" width="150" height="120" as="geometry" />
        </mxCell>
        <mxCell id="n7o8BsItlUeNYU8J1b4U-89" value="" style="endArrow=classic;html=1;rounded=0;entryX=1;entryY=0.5;entryDx=0;entryDy=0;" edge="1" parent="1" target="n7o8BsItlUeNYU8J1b4U-88">
          <mxGeometry width="50" height="50" relative="1" as="geometry">
            <mxPoint x="557" y="1100" as="sourcePoint" />
            <mxPoint x="420" y="1170" as="targetPoint" />
            <Array as="points">
              <mxPoint x="557" y="1180" />
            </Array>
          </mxGeometry>
        </mxCell>
        <mxCell id="n7o8BsItlUeNYU8J1b4U-90" value="" style="endArrow=classic;html=1;rounded=0;exitX=0.5;exitY=1;exitDx=0;exitDy=0;" edge="1" parent="1" source="n7o8BsItlUeNYU8J1b4U-88">
          <mxGeometry width="50" height="50" relative="1" as="geometry">
            <mxPoint x="370" y="1220" as="sourcePoint" />
            <mxPoint x="365" y="1290" as="targetPoint" />
          </mxGeometry>
        </mxCell>
        <mxCell id="n7o8BsItlUeNYU8J1b4U-91" value="Yes" style="text;html=1;strokeColor=none;fillColor=none;align=center;verticalAlign=middle;whiteSpace=wrap;rounded=0;" vertex="1" parent="1">
          <mxGeometry x="350" y="1241" width="60" height="30" as="geometry" />
        </mxCell>
        <mxCell id="n7o8BsItlUeNYU8J1b4U-92" value="" style="endArrow=classic;html=1;rounded=0;exitX=0;exitY=0.5;exitDx=0;exitDy=0;entryX=0.5;entryY=0;entryDx=0;entryDy=0;" edge="1" parent="1" source="n7o8BsItlUeNYU8J1b4U-88" target="n7o8BsItlUeNYU8J1b4U-77">
          <mxGeometry width="50" height="50" relative="1" as="geometry">
            <mxPoint x="370" y="1100" as="sourcePoint" />
            <mxPoint x="400" y="800" as="targetPoint" />
            <Array as="points">
              <mxPoint x="120" y="1181" />
              <mxPoint x="120" y="800" />
              <mxPoint x="370" y="800" />
            </Array>
          </mxGeometry>
        </mxCell>
        <mxCell id="n7o8BsItlUeNYU8J1b4U-94" value="No" style="text;html=1;strokeColor=none;fillColor=none;align=center;verticalAlign=middle;whiteSpace=wrap;rounded=0;" vertex="1" parent="1">
          <mxGeometry x="211" y="1160" width="60" height="30" as="geometry" />
        </mxCell>
        <mxCell id="n7o8BsItlUeNYU8J1b4U-95" value="Deploy the health record system" style="rounded=1;whiteSpace=wrap;html=1;" vertex="1" parent="1">
          <mxGeometry x="300" y="1290" width="120" height="60" as="geometry" />
        </mxCell>
        <mxCell id="n7o8BsItlUeNYU8J1b4U-96" value="" style="endArrow=classic;html=1;rounded=0;exitX=0.5;exitY=1;exitDx=0;exitDy=0;entryX=0.5;entryY=0;entryDx=0;entryDy=0;" edge="1" parent="1" source="n7o8BsItlUeNYU8J1b4U-95" target="n7o8BsItlUeNYU8J1b4U-97">
          <mxGeometry width="50" height="50" relative="1" as="geometry">
            <mxPoint x="270" y="1460" as="sourcePoint" />
            <mxPoint x="360" y="1430" as="targetPoint" />
          </mxGeometry>
        </mxCell>
        <mxCell id="n7o8BsItlUeNYU8J1b4U-97" value="Conduct employee&lt;br&gt;training on how to use the system" style="rounded=1;whiteSpace=wrap;html=1;" vertex="1" parent="1">
          <mxGeometry x="300" y="1380" width="120" height="60" as="geometry" />
        </mxCell>
        <mxCell id="n7o8BsItlUeNYU8J1b4U-99" value="Perform Regular maintainance and upgrading" style="rounded=1;whiteSpace=wrap;html=1;" vertex="1" parent="1">
          <mxGeometry x="300" y="1480" width="120" height="60" as="geometry" />
        </mxCell>
        <mxCell id="n7o8BsItlUeNYU8J1b4U-100" value="" style="endArrow=classic;html=1;rounded=0;exitX=0.428;exitY=1;exitDx=0;exitDy=0;exitPerimeter=0;entryX=0.428;entryY=0;entryDx=0;entryDy=0;entryPerimeter=0;" edge="1" parent="1" source="n7o8BsItlUeNYU8J1b4U-97" target="n7o8BsItlUeNYU8J1b4U-99">
          <mxGeometry width="50" height="50" relative="1" as="geometry">
            <mxPoint x="270" y="1580" as="sourcePoint" />
            <mxPoint x="320" y="1530" as="targetPoint" />
          </mxGeometry>
        </mxCell>
        <mxCell id="n7o8BsItlUeNYU8J1b4U-101" value="" style="endArrow=classic;html=1;rounded=0;exitX=0.5;exitY=1;exitDx=0;exitDy=0;" edge="1" parent="1" source="n7o8BsItlUeNYU8J1b4U-99">
          <mxGeometry width="50" height="50" relative="1" as="geometry">
            <mxPoint x="270" y="1570" as="sourcePoint" />
            <mxPoint x="360" y="1570" as="targetPoint" />
          </mxGeometry>
        </mxCell>
        <mxCell id="n7o8BsItlUeNYU8J1b4U-102" value="Stop" style="shape=mxgraph.flowchart.terminator;strokeWidth=2;gradientColor=none;gradientDirection=north;fontStyle=0;html=1;" vertex="1" parent="1">
          <mxGeometry x="310" y="1570" width="120" height="30" as="geometry" />
        </mxCell>
      </root>
    </mxGraphModel>
  </diagram>
</mxfile>
